<mxfile host="app.diagrams.net" modified="2023-04-23T11:04:23.970Z" agent="Mozilla/5.0 (Windows NT 10.0; Win64; x64) AppleWebKit/537.36 (KHTML, like Gecko) Chrome/112.0.0.0 Safari/537.36" etag="yyp5NLbj3hlGaUvPp7do" version="21.2.1" type="device">
  <diagram name="Strona-1" id="Ra30UfUFsEbxFV3y4_7h">
    <mxGraphModel dx="1434" dy="764" grid="1" gridSize="10" guides="1" tooltips="1" connect="1" arrows="1" fold="1" page="1" pageScale="1" pageWidth="1169" pageHeight="827" math="0" shadow="0">
      <root>
        <mxCell id="0" />
        <mxCell id="1" parent="0" />
        <mxCell id="aMQQNc8Kpn8E1D_Ji3xx-24" style="edgeStyle=orthogonalEdgeStyle;rounded=0;orthogonalLoop=1;jettySize=auto;html=1;entryX=0.5;entryY=0;entryDx=0;entryDy=0;entryPerimeter=0;labelBackgroundColor=none;strokeColor=#A8201A;fontColor=default;" edge="1" parent="1" source="aMQQNc8Kpn8E1D_Ji3xx-1" target="aMQQNc8Kpn8E1D_Ji3xx-7">
          <mxGeometry relative="1" as="geometry" />
        </mxCell>
        <mxCell id="aMQQNc8Kpn8E1D_Ji3xx-1" value="Pliki z logami z gry" style="rounded=0;whiteSpace=wrap;html=1;labelBackgroundColor=none;fillColor=#FAE5C7;strokeColor=#0F8B8D;fontColor=#143642;" vertex="1" parent="1">
          <mxGeometry x="35" y="170" width="120" height="60" as="geometry" />
        </mxCell>
        <mxCell id="aMQQNc8Kpn8E1D_Ji3xx-23" style="edgeStyle=orthogonalEdgeStyle;rounded=0;orthogonalLoop=1;jettySize=auto;html=1;entryX=0;entryY=0;entryDx=15;entryDy=15;entryPerimeter=0;labelBackgroundColor=none;strokeColor=#A8201A;fontColor=default;" edge="1" parent="1" source="aMQQNc8Kpn8E1D_Ji3xx-2" target="aMQQNc8Kpn8E1D_Ji3xx-7">
          <mxGeometry relative="1" as="geometry" />
        </mxCell>
        <mxCell id="aMQQNc8Kpn8E1D_Ji3xx-2" value="Pliki z wynikami gry" style="rounded=0;whiteSpace=wrap;html=1;labelBackgroundColor=none;fillColor=#FAE5C7;strokeColor=#0F8B8D;fontColor=#143642;" vertex="1" parent="1">
          <mxGeometry x="35" y="250" width="122" height="60" as="geometry" />
        </mxCell>
        <mxCell id="aMQQNc8Kpn8E1D_Ji3xx-22" style="edgeStyle=orthogonalEdgeStyle;rounded=0;orthogonalLoop=1;jettySize=auto;html=1;entryX=0;entryY=0;entryDx=0;entryDy=30;entryPerimeter=0;labelBackgroundColor=none;strokeColor=#A8201A;fontColor=default;" edge="1" parent="1" source="aMQQNc8Kpn8E1D_Ji3xx-3" target="aMQQNc8Kpn8E1D_Ji3xx-7">
          <mxGeometry relative="1" as="geometry" />
        </mxCell>
        <mxCell id="aMQQNc8Kpn8E1D_Ji3xx-3" value="Pliki z danymi użytkowników" style="rounded=0;whiteSpace=wrap;html=1;labelBackgroundColor=none;fillColor=#FAE5C7;strokeColor=#0F8B8D;fontColor=#143642;" vertex="1" parent="1">
          <mxGeometry x="35" y="330" width="120" height="60" as="geometry" />
        </mxCell>
        <mxCell id="aMQQNc8Kpn8E1D_Ji3xx-21" style="edgeStyle=orthogonalEdgeStyle;rounded=0;orthogonalLoop=1;jettySize=auto;html=1;exitX=1;exitY=0.5;exitDx=0;exitDy=0;exitPerimeter=0;entryX=0;entryY=1;entryDx=0;entryDy=0;entryPerimeter=0;labelBackgroundColor=none;strokeColor=#A8201A;fontColor=default;" edge="1" parent="1" source="aMQQNc8Kpn8E1D_Ji3xx-5" target="aMQQNc8Kpn8E1D_Ji3xx-7">
          <mxGeometry relative="1" as="geometry" />
        </mxCell>
        <mxCell id="aMQQNc8Kpn8E1D_Ji3xx-5" value="Azure SQL Database - przechowywanie logów z gry" style="shape=cylinder3;whiteSpace=wrap;html=1;boundedLbl=1;backgroundOutline=1;size=15;labelBackgroundColor=none;fillColor=#FAE5C7;strokeColor=#0F8B8D;fontColor=#143642;" vertex="1" parent="1">
          <mxGeometry x="35" y="410" width="160" height="90" as="geometry" />
        </mxCell>
        <mxCell id="aMQQNc8Kpn8E1D_Ji3xx-20" style="edgeStyle=orthogonalEdgeStyle;rounded=0;orthogonalLoop=1;jettySize=auto;html=1;entryX=0.5;entryY=1;entryDx=0;entryDy=0;entryPerimeter=0;labelBackgroundColor=none;strokeColor=#A8201A;fontColor=default;" edge="1" parent="1" source="aMQQNc8Kpn8E1D_Ji3xx-6" target="aMQQNc8Kpn8E1D_Ji3xx-7">
          <mxGeometry relative="1" as="geometry" />
        </mxCell>
        <mxCell id="aMQQNc8Kpn8E1D_Ji3xx-6" value="Azure Cosmos DB do przechowywania danych użytkowników" style="shape=cylinder3;whiteSpace=wrap;html=1;boundedLbl=1;backgroundOutline=1;size=15;labelBackgroundColor=none;fillColor=#FAE5C7;strokeColor=#0F8B8D;fontColor=#143642;" vertex="1" parent="1">
          <mxGeometry x="35" y="520" width="160" height="90" as="geometry" />
        </mxCell>
        <mxCell id="aMQQNc8Kpn8E1D_Ji3xx-25" style="edgeStyle=orthogonalEdgeStyle;rounded=0;orthogonalLoop=1;jettySize=auto;html=1;exitX=1;exitY=0.5;exitDx=0;exitDy=0;exitPerimeter=0;labelBackgroundColor=none;strokeColor=#A8201A;fontColor=default;" edge="1" parent="1" source="aMQQNc8Kpn8E1D_Ji3xx-7" target="aMQQNc8Kpn8E1D_Ji3xx-8">
          <mxGeometry relative="1" as="geometry" />
        </mxCell>
        <mxCell id="aMQQNc8Kpn8E1D_Ji3xx-7" value="1. Pobranie danych" style="shape=card;whiteSpace=wrap;html=1;labelBackgroundColor=none;fillColor=#FAE5C7;strokeColor=#0F8B8D;fontColor=#143642;" vertex="1" parent="1">
          <mxGeometry x="265" y="330" width="80" height="100" as="geometry" />
        </mxCell>
        <mxCell id="aMQQNc8Kpn8E1D_Ji3xx-26" style="edgeStyle=orthogonalEdgeStyle;rounded=0;orthogonalLoop=1;jettySize=auto;html=1;labelBackgroundColor=none;strokeColor=#A8201A;fontColor=default;" edge="1" parent="1" source="aMQQNc8Kpn8E1D_Ji3xx-8" target="aMQQNc8Kpn8E1D_Ji3xx-17">
          <mxGeometry relative="1" as="geometry">
            <Array as="points">
              <mxPoint x="625" y="380" />
              <mxPoint x="625" y="190" />
            </Array>
          </mxGeometry>
        </mxCell>
        <mxCell id="aMQQNc8Kpn8E1D_Ji3xx-35" style="edgeStyle=orthogonalEdgeStyle;rounded=0;orthogonalLoop=1;jettySize=auto;html=1;entryX=0.006;entryY=0.61;entryDx=0;entryDy=0;entryPerimeter=0;labelBackgroundColor=none;strokeColor=#A8201A;fontColor=default;" edge="1" parent="1" source="aMQQNc8Kpn8E1D_Ji3xx-8" target="aMQQNc8Kpn8E1D_Ji3xx-28">
          <mxGeometry relative="1" as="geometry">
            <Array as="points">
              <mxPoint x="625" y="380" />
              <mxPoint x="625" y="300" />
            </Array>
          </mxGeometry>
        </mxCell>
        <mxCell id="aMQQNc8Kpn8E1D_Ji3xx-36" style="edgeStyle=orthogonalEdgeStyle;rounded=0;orthogonalLoop=1;jettySize=auto;html=1;entryX=0;entryY=0;entryDx=0;entryDy=70;entryPerimeter=0;labelBackgroundColor=none;strokeColor=#A8201A;fontColor=default;" edge="1" parent="1" source="aMQQNc8Kpn8E1D_Ji3xx-8" target="aMQQNc8Kpn8E1D_Ji3xx-30">
          <mxGeometry relative="1" as="geometry" />
        </mxCell>
        <mxCell id="aMQQNc8Kpn8E1D_Ji3xx-37" style="edgeStyle=orthogonalEdgeStyle;rounded=0;orthogonalLoop=1;jettySize=auto;html=1;entryX=0;entryY=0;entryDx=0;entryDy=53.5;entryPerimeter=0;labelBackgroundColor=none;strokeColor=#A8201A;fontColor=default;" edge="1" parent="1" source="aMQQNc8Kpn8E1D_Ji3xx-8" target="aMQQNc8Kpn8E1D_Ji3xx-29">
          <mxGeometry relative="1" as="geometry" />
        </mxCell>
        <mxCell id="aMQQNc8Kpn8E1D_Ji3xx-38" style="edgeStyle=orthogonalEdgeStyle;rounded=0;orthogonalLoop=1;jettySize=auto;html=1;entryX=0;entryY=0;entryDx=0;entryDy=53.5;entryPerimeter=0;labelBackgroundColor=none;strokeColor=#A8201A;fontColor=default;" edge="1" parent="1" source="aMQQNc8Kpn8E1D_Ji3xx-8" target="aMQQNc8Kpn8E1D_Ji3xx-31">
          <mxGeometry relative="1" as="geometry" />
        </mxCell>
        <mxCell id="aMQQNc8Kpn8E1D_Ji3xx-8" value="2. Transformacje danych&amp;nbsp;takie jak filtrowanie logów, konwersja formatu danych, scalanie danych" style="shape=card;whiteSpace=wrap;html=1;labelBackgroundColor=none;fillColor=#FAE5C7;strokeColor=#0F8B8D;fontColor=#143642;" vertex="1" parent="1">
          <mxGeometry x="395" y="330" width="180" height="100" as="geometry" />
        </mxCell>
        <mxCell id="aMQQNc8Kpn8E1D_Ji3xx-17" value="Hurtownia Danych" style="shape=cube;whiteSpace=wrap;html=1;boundedLbl=1;backgroundOutline=1;darkOpacity=0.05;darkOpacity2=0.1;labelBackgroundColor=none;fillColor=#FAE5C7;strokeColor=#0F8B8D;fontColor=#143642;" vertex="1" parent="1">
          <mxGeometry x="674" y="150" width="120" height="80" as="geometry" />
        </mxCell>
        <mxCell id="aMQQNc8Kpn8E1D_Ji3xx-39" style="edgeStyle=orthogonalEdgeStyle;rounded=0;orthogonalLoop=1;jettySize=auto;html=1;entryX=0;entryY=0;entryDx=0;entryDy=74.25;entryPerimeter=0;labelBackgroundColor=none;strokeColor=#A8201A;fontColor=default;" edge="1" parent="1" source="aMQQNc8Kpn8E1D_Ji3xx-28" target="aMQQNc8Kpn8E1D_Ji3xx-34">
          <mxGeometry relative="1" as="geometry" />
        </mxCell>
        <mxCell id="aMQQNc8Kpn8E1D_Ji3xx-28" value="3. Przeprowadzenie analizy danych i tworzenie wizualizacji" style="shape=card;whiteSpace=wrap;html=1;labelBackgroundColor=none;fillColor=#FAE5C7;strokeColor=#0F8B8D;fontColor=#143642;" vertex="1" parent="1">
          <mxGeometry x="663" y="253" width="176" height="77" as="geometry" />
        </mxCell>
        <mxCell id="aMQQNc8Kpn8E1D_Ji3xx-40" style="edgeStyle=orthogonalEdgeStyle;rounded=0;orthogonalLoop=1;jettySize=auto;html=1;entryX=0;entryY=0;entryDx=0;entryDy=74.25;entryPerimeter=0;labelBackgroundColor=none;strokeColor=#A8201A;fontColor=default;" edge="1" parent="1" source="aMQQNc8Kpn8E1D_Ji3xx-29" target="aMQQNc8Kpn8E1D_Ji3xx-34">
          <mxGeometry relative="1" as="geometry">
            <mxPoint x="935" y="410" as="targetPoint" />
            <Array as="points">
              <mxPoint x="887" y="392" />
              <mxPoint x="887" y="416" />
            </Array>
          </mxGeometry>
        </mxCell>
        <mxCell id="aMQQNc8Kpn8E1D_Ji3xx-29" value="4. Monitorowanie i zarządzanie przepływem" style="shape=card;whiteSpace=wrap;html=1;labelBackgroundColor=none;fillColor=#FAE5C7;strokeColor=#0F8B8D;fontColor=#143642;" vertex="1" parent="1">
          <mxGeometry x="663" y="353" width="176" height="77" as="geometry" />
        </mxCell>
        <mxCell id="aMQQNc8Kpn8E1D_Ji3xx-41" style="edgeStyle=orthogonalEdgeStyle;rounded=0;orthogonalLoop=1;jettySize=auto;html=1;entryX=0;entryY=0;entryDx=0;entryDy=74.25;entryPerimeter=0;labelBackgroundColor=none;strokeColor=#A8201A;fontColor=default;" edge="1" parent="1" source="aMQQNc8Kpn8E1D_Ji3xx-30" target="aMQQNc8Kpn8E1D_Ji3xx-34">
          <mxGeometry relative="1" as="geometry" />
        </mxCell>
        <mxCell id="aMQQNc8Kpn8E1D_Ji3xx-30" value="5. Wykorzystanie Azure Machine Learning do automatycznego wykrywania anomalii w danych" style="shape=card;whiteSpace=wrap;html=1;labelBackgroundColor=none;fillColor=#FAE5C7;strokeColor=#0F8B8D;fontColor=#143642;" vertex="1" parent="1">
          <mxGeometry x="663" y="460" width="176" height="110" as="geometry" />
        </mxCell>
        <mxCell id="aMQQNc8Kpn8E1D_Ji3xx-43" style="edgeStyle=orthogonalEdgeStyle;rounded=0;orthogonalLoop=1;jettySize=auto;html=1;entryX=0;entryY=0;entryDx=0;entryDy=74.25;entryPerimeter=0;labelBackgroundColor=none;strokeColor=#A8201A;fontColor=default;" edge="1" parent="1" source="aMQQNc8Kpn8E1D_Ji3xx-31" target="aMQQNc8Kpn8E1D_Ji3xx-34">
          <mxGeometry relative="1" as="geometry">
            <Array as="points">
              <mxPoint x="887" y="639" />
              <mxPoint x="887" y="416" />
            </Array>
          </mxGeometry>
        </mxCell>
        <mxCell id="aMQQNc8Kpn8E1D_Ji3xx-31" value="6. Monitorowanie i zarządzanie przepływem" style="shape=card;whiteSpace=wrap;html=1;labelBackgroundColor=none;fillColor=#FAE5C7;strokeColor=#0F8B8D;fontColor=#143642;" vertex="1" parent="1">
          <mxGeometry x="663" y="600" width="176" height="77" as="geometry" />
        </mxCell>
        <mxCell id="aMQQNc8Kpn8E1D_Ji3xx-34" value="7. Zapis danych w chmurze Microsoft Azure" style="shape=card;whiteSpace=wrap;html=1;labelBackgroundColor=none;fillColor=#FAE5C7;strokeColor=#0F8B8D;fontColor=#143642;" vertex="1" parent="1">
          <mxGeometry x="935" y="341.5" width="200" height="118.5" as="geometry" />
        </mxCell>
      </root>
    </mxGraphModel>
  </diagram>
</mxfile>
